<svg id="my-svg" width="100%" xmlns="http://www.w3.org/2000/svg" xmlns:xlink="http://www.w3.org/1999/xlink" style="max-width: 415.344px; background-color: transparent;" viewBox="-8 -8 415.34375 1004" role="graphics-document document" aria-roledescription="flowchart-v2"><style>#my-svg{font-family:Microsoft YaHei,SimSun,Arial;font-size:16px;fill:#111827;}#my-svg .error-icon{fill:#F0FDF4;}#my-svg .error-text{fill:#0f020b;stroke:#0f020b;}#my-svg .edge-thickness-normal{stroke-width:2px;}#my-svg .edge-thickness-thick{stroke-width:3.5px;}#my-svg .edge-pattern-solid{stroke-dasharray:0;}#my-svg .edge-pattern-dashed{stroke-dasharray:3;}#my-svg .edge-pattern-dotted{stroke-dasharray:2;}#my-svg .marker{fill:#6B7280;stroke:#6B7280;}#my-svg .marker.cross{stroke:#6B7280;}#my-svg svg{font-family:Microsoft YaHei,SimSun,Arial;font-size:16px;}#my-svg .label{font-family:Microsoft YaHei,SimSun,Arial;color:#111827;}#my-svg .cluster-label text{fill:#0f020b;}#my-svg .cluster-label span,#my-svg p{color:#0f020b;}#my-svg .label text,#my-svg span,#my-svg p{fill:#111827;color:#111827;}#my-svg .node rect,#my-svg .node circle,#my-svg .node ellipse,#my-svg .node polygon,#my-svg .node path{fill:#F9FAFB;stroke:#B91C1C;stroke-width:1px;}#my-svg .flowchart-label text{text-anchor:middle;}#my-svg .node .katex path{fill:#000;stroke:#000;stroke-width:1px;}#my-svg .node .label{text-align:center;}#my-svg .node.clickable{cursor:pointer;}#my-svg .arrowheadPath{fill:#0b0b0b;}#my-svg .edgePath .path{stroke:#6B7280;stroke-width:2.0px;}#my-svg .flowchart-link{stroke:#6B7280;fill:none;}#my-svg .edgeLabel{background-color:hsl(90, 20%, 98.0392156863%);text-align:center;}#my-svg .edgeLabel rect{opacity:0.5;background-color:hsl(90, 20%, 98.0392156863%);fill:hsl(90, 20%, 98.0392156863%);}#my-svg .labelBkg{background-color:rgba(250.0000000001, 251.0000000001, 249.0000000001, 0.5);}#my-svg .cluster rect{fill:#F0FDF4;stroke:hsl(138.4615384615, 36.4705882353%, 86.6666666667%);stroke-width:1px;}#my-svg .cluster text{fill:#0f020b;}#my-svg .cluster span,#my-svg p{color:#0f020b;}#my-svg div.mermaidTooltip{position:absolute;text-align:center;max-width:200px;padding:2px;font-family:Microsoft YaHei,SimSun,Arial;font-size:12px;background:#F0FDF4;border:1px solid hsl(138.4615384615, 36.4705882353%, 86.6666666667%);border-radius:2px;pointer-events:none;z-index:100;}#my-svg .flowchartTitleText{text-anchor:middle;font-size:18px;fill:#111827;}#my-svg :root{--mermaid-font-family:"trebuchet ms",verdana,arial,sans-serif;}</style><g><marker id="my-svg_flowchart-pointEnd" class="marker flowchart" viewBox="0 0 10 10" refX="6" refY="5" markerUnits="userSpaceOnUse" markerWidth="12" markerHeight="12" orient="auto"><path d="M 0 0 L 10 5 L 0 10 z" class="arrowMarkerPath" style="stroke-width: 1; stroke-dasharray: 1, 0;"/></marker><marker id="my-svg_flowchart-pointStart" class="marker flowchart" viewBox="0 0 10 10" refX="4.5" refY="5" markerUnits="userSpaceOnUse" markerWidth="12" markerHeight="12" orient="auto"><path d="M 0 5 L 10 10 L 10 0 z" class="arrowMarkerPath" style="stroke-width: 1; stroke-dasharray: 1, 0;"/></marker><marker id="my-svg_flowchart-circleEnd" class="marker flowchart" viewBox="0 0 10 10" refX="11" refY="5" markerUnits="userSpaceOnUse" markerWidth="11" markerHeight="11" orient="auto"><circle cx="5" cy="5" r="5" class="arrowMarkerPath" style="stroke-width: 1; stroke-dasharray: 1, 0;"/></marker><marker id="my-svg_flowchart-circleStart" class="marker flowchart" viewBox="0 0 10 10" refX="-1" refY="5" markerUnits="userSpaceOnUse" markerWidth="11" markerHeight="11" orient="auto"><circle cx="5" cy="5" r="5" class="arrowMarkerPath" style="stroke-width: 1; stroke-dasharray: 1, 0;"/></marker><marker id="my-svg_flowchart-crossEnd" class="marker cross flowchart" viewBox="0 0 11 11" refX="12" refY="5.2" markerUnits="userSpaceOnUse" markerWidth="11" markerHeight="11" orient="auto"><path d="M 1,1 l 9,9 M 10,1 l -9,9" class="arrowMarkerPath" style="stroke-width: 2; stroke-dasharray: 1, 0;"/></marker><marker id="my-svg_flowchart-crossStart" class="marker cross flowchart" viewBox="0 0 11 11" refX="-1" refY="5.2" markerUnits="userSpaceOnUse" markerWidth="11" markerHeight="11" orient="auto"><path d="M 1,1 l 9,9 M 10,1 l -9,9" class="arrowMarkerPath" style="stroke-width: 2; stroke-dasharray: 1, 0;"/></marker><g class="root"><g class="clusters"/><g class="edgePaths"><path d="M199.672,52L199.672,56.333C199.672,60.667,199.672,69.333,199.672,77.117C199.672,84.9,199.672,91.8,199.672,95.25L199.672,98.7" id="L-A-B-0" class="edge-thickness-normal edge-pattern-solid flowchart-link LS-A LE-B" style="fill:none;" marker-end="url(#my-svg_flowchart-pointEnd)"/><path d="M199.672,156L199.672,160.333C199.672,164.667,199.672,173.333,199.672,181.117C199.672,188.9,199.672,195.8,199.672,199.25L199.672,202.7" id="L-B-C-0" class="edge-thickness-normal edge-pattern-solid flowchart-link LS-B LE-C" style="fill:none;" marker-end="url(#my-svg_flowchart-pointEnd)"/><path d="M199.672,260L199.672,264.333C199.672,268.667,199.672,277.333,199.672,285.117C199.672,292.9,199.672,299.8,199.672,303.25L199.672,306.7" id="L-C-D-0" class="edge-thickness-normal edge-pattern-solid flowchart-link LS-C LE-D" style="fill:none;" marker-end="url(#my-svg_flowchart-pointEnd)"/><path d="M199.672,364L199.672,368.333C199.672,372.667,199.672,381.333,199.672,389.117C199.672,396.9,199.672,403.8,199.672,407.25L199.672,410.7" id="L-D-E-0" class="edge-thickness-normal edge-pattern-solid flowchart-link LS-D LE-E" style="fill:none;" marker-end="url(#my-svg_flowchart-pointEnd)"/><path d="M199.672,468L199.672,472.333C199.672,476.667,199.672,485.333,199.672,493.117C199.672,500.9,199.672,507.8,199.672,511.25L199.672,514.7" id="L-E-F-0" class="edge-thickness-normal edge-pattern-solid flowchart-link LS-E LE-F" style="fill:none;" marker-end="url(#my-svg_flowchart-pointEnd)"/><path d="M199.672,572L199.672,576.333C199.672,580.667,199.672,589.333,199.672,597.117C199.672,604.9,199.672,611.8,199.672,615.25L199.672,618.7" id="L-F-G-0" class="edge-thickness-normal edge-pattern-solid flowchart-link LS-F LE-G" style="fill:none;" marker-end="url(#my-svg_flowchart-pointEnd)"/><path d="M199.672,676L199.672,680.333C199.672,684.667,199.672,693.333,199.672,701.117C199.672,708.9,199.672,715.8,199.672,719.25L199.672,722.7" id="L-G-H-0" class="edge-thickness-normal edge-pattern-solid flowchart-link LS-G LE-H" style="fill:none;" marker-end="url(#my-svg_flowchart-pointEnd)"/><path d="M199.672,780L199.672,784.333C199.672,788.667,199.672,797.333,199.672,805.117C199.672,812.9,199.672,819.8,199.672,823.25L199.672,826.7" id="L-H-I-0" class="edge-thickness-normal edge-pattern-solid flowchart-link LS-H LE-I" style="fill:none;" marker-end="url(#my-svg_flowchart-pointEnd)"/><path d="M199.672,884L199.672,888.333C199.672,892.667,199.672,901.333,199.672,909.117C199.672,916.9,199.672,923.8,199.672,927.25L199.672,930.7" id="L-I-J-0" class="edge-thickness-normal edge-pattern-solid flowchart-link LS-I LE-J" style="fill:none;" marker-end="url(#my-svg_flowchart-pointEnd)"/></g><g class="edgeLabels"><g class="edgeLabel"><g class="label" transform="translate(0, 0)"><rect rx="0" ry="0" width="0" height="0"/><text style=""><tspan xml:space="preserve" dy="1em" x="0" class="row"/></text></g></g><g class="edgeLabel"><g class="label" transform="translate(0, 0)"><rect rx="0" ry="0" width="0" height="0"/><text style=""><tspan xml:space="preserve" dy="1em" x="0" class="row"/></text></g></g><g class="edgeLabel"><g class="label" transform="translate(0, 0)"><rect rx="0" ry="0" width="0" height="0"/><text style=""><tspan xml:space="preserve" dy="1em" x="0" class="row"/></text></g></g><g class="edgeLabel"><g class="label" transform="translate(0, 0)"><rect rx="0" ry="0" width="0" height="0"/><text style=""><tspan xml:space="preserve" dy="1em" x="0" class="row"/></text></g></g><g class="edgeLabel"><g class="label" transform="translate(0, 0)"><rect rx="0" ry="0" width="0" height="0"/><text style=""><tspan xml:space="preserve" dy="1em" x="0" class="row"/></text></g></g><g class="edgeLabel"><g class="label" transform="translate(0, 0)"><rect rx="0" ry="0" width="0" height="0"/><text style=""><tspan xml:space="preserve" dy="1em" x="0" class="row"/></text></g></g><g class="edgeLabel"><g class="label" transform="translate(0, 0)"><rect rx="0" ry="0" width="0" height="0"/><text style=""><tspan xml:space="preserve" dy="1em" x="0" class="row"/></text></g></g><g class="edgeLabel"><g class="label" transform="translate(0, 0)"><rect rx="0" ry="0" width="0" height="0"/><text style=""><tspan xml:space="preserve" dy="1em" x="0" class="row"/></text></g></g><g class="edgeLabel"><g class="label" transform="translate(0, 0)"><rect rx="0" ry="0" width="0" height="0"/><text style=""><tspan xml:space="preserve" dy="1em" x="0" class="row"/></text></g></g></g><g class="nodes"><g class="node default default flowchart-label" id="flowchart-A-0" data-node="true" data-id="A" transform="translate(199.671875, 26)"><rect class="basic label-container" style="" rx="0" ry="0" x="-148.5625" y="-26" width="297.125" height="52"/><g class="label" style="" transform="translate(0, -18.5)"><rect/><text style=""><tspan xml:space="preserve" dy="1em" x="0" class="row">需求与规格</tspan><tspan xml:space="preserve" dy="1em" x="0" class="row">FR-001~FR-018 / NFR-001~NFR-005</tspan></text></g></g><g class="node default default flowchart-label" id="flowchart-B-1" data-node="true" data-id="B" transform="translate(199.671875, 130)"><rect class="basic label-container" style="" rx="0" ry="0" x="-64.5" y="-26" width="129" height="52"/><g class="label" style="" transform="translate(0, -18.5)"><rect/><text style=""><tspan xml:space="preserve" dy="1em" x="0" class="row">S0 基线冻结</tspan><tspan xml:space="preserve" dy="1em" x="0" class="row">构建与测试基线</tspan></text></g></g><g class="node default default flowchart-label" id="flowchart-C-3" data-node="true" data-id="C" transform="translate(199.671875, 234)"><rect class="basic label-container" style="" rx="0" ry="0" x="-121.58984375" y="-26" width="243.1796875" height="52"/><g class="label" style="" transform="translate(0, -18.5)"><rect/><text style=""><tspan xml:space="preserve" dy="1em" x="0" class="row">S1~S3 核心闭环</tspan><tspan xml:space="preserve" dy="1em" x="0" class="row">知识/流程/审批/通知/学业/画像</tspan></text></g></g><g class="node default default flowchart-label" id="flowchart-D-5" data-node="true" data-id="D" transform="translate(199.671875, 338)"><rect class="basic label-container" style="" rx="0" ry="0" x="-119.5390625" y="-26" width="239.078125" height="52"/><g class="label" style="" transform="translate(0, -18.5)"><rect/><text style=""><tspan xml:space="preserve" dy="1em" x="0" class="row">S4 治理闭环</tspan><tspan xml:space="preserve" dy="1em" x="0" class="row">权限/审计/索引/Kingbase 回归</tspan></text></g></g><g class="node default default flowchart-label" id="flowchart-E-7" data-node="true" data-id="E" transform="translate(199.671875, 442)"><rect class="basic label-container" style="" rx="0" ry="0" x="-144.25" y="-26" width="288.5" height="52"/><g class="label" style="" transform="translate(0, -18.5)"><rect/><text style=""><tspan xml:space="preserve" dy="1em" x="0" class="row">S28 生产部署</tspan><tspan xml:space="preserve" dy="1em" x="0" class="row">Docker Compose / Nginx / 内网入口</tspan></text></g></g><g class="node default default flowchart-label" id="flowchart-F-9" data-node="true" data-id="F" transform="translate(199.671875, 546)"><rect class="basic label-container" style="" rx="0" ry="0" x="-138.69921875" y="-26" width="277.3984375" height="52"/><g class="label" style="" transform="translate(0, -18.5)"><rect/><text style=""><tspan xml:space="preserve" dy="1em" x="0" class="row">S44 自动部署</tspan><tspan xml:space="preserve" dy="1em" x="0" class="row">GitHub Actions self-hosted runner</tspan></text></g></g><g class="node default default flowchart-label" id="flowchart-G-11" data-node="true" data-id="G" transform="translate(199.671875, 650)"><rect class="basic label-container" style="" rx="0" ry="0" x="-94.8359375" y="-26" width="189.671875" height="52"/><g class="label" style="" transform="translate(0, -18.5)"><rect/><text style=""><tspan xml:space="preserve" dy="1em" x="0" class="row">S45~S50 测试审查</tspan><tspan xml:space="preserve" dy="1em" x="0" class="row">缺陷分级/修复/全栈回归</tspan></text></g></g><g class="node default default flowchart-label" id="flowchart-H-13" data-node="true" data-id="H" transform="translate(199.671875, 754)"><rect class="basic label-container" style="" rx="0" ry="0" x="-74.921875" y="-26" width="149.84375" height="52"/><g class="label" style="" transform="translate(0, -18.5)"><rect/><text style=""><tspan xml:space="preserve" dy="1em" x="0" class="row">S71 文档交付</tspan><tspan xml:space="preserve" dy="1em" x="0" class="row">用户手册/测试报告</tspan></text></g></g><g class="node default default flowchart-label" id="flowchart-I-15" data-node="true" data-id="I" transform="translate(199.671875, 858)"><rect class="basic label-container" style="" rx="0" ry="0" x="-110.8359375" y="-26" width="221.671875" height="52"/><g class="label" style="" transform="translate(0, -18.5)"><rect/><text style=""><tspan xml:space="preserve" dy="1em" x="0" class="row">S76 互测反馈闭环</tspan><tspan xml:space="preserve" dy="1em" x="0" class="row">附件下载/查询交互/日期校验</tspan></text></g></g><g class="node default default flowchart-label" id="flowchart-J-17" data-node="true" data-id="J" transform="translate(199.671875, 962)"><rect class="basic label-container" style="" rx="0" ry="0" x="-199.671875" y="-26" width="399.34375" height="52"/><g class="label" style="" transform="translate(0, -18.5)"><rect/><text style=""><tspan xml:space="preserve" dy="1em" x="0" class="row">S77 主线整合</tspan><tspan xml:space="preserve" dy="1em" x="0" class="row">146 passed / Web build / Miniapp build / 生产回归</tspan></text></g></g></g></g></g></svg>